<svg version="1.1"
     baseProfile="full"
     width="710" height="300"
     xmlns="http://www.w3.org/2000/svg">

  <rect x="50" y ="50" width="300" height="200" fill="lightgreen" stroke="black" stroke-width="3" />

  <circle cx="600" cy="150" r="100" fill="lightcoral" stroke="black" stroke-width="3"/>

  <line x1="200" x2="350" y1="150" y2="150" stroke="black" stroke-width="3"/>

  <line x1="200" x2="50" y1="150" y2="50" stroke="black" stroke-width="3"/>

  <line x1="200" x2="50" y1="150" y2="250" stroke="black" stroke-width="3"/>

  <line x1="500" x2="600" y1="150" y2="150" stroke="black" stroke-width="3"/>

  <line x1="600" x2="675" y1="150" y2="85" stroke="black" stroke-width="3"/>

  <line x1="600" x2="675" y1="150" y2="215" stroke="black" stroke-width="3"/>

  <circle cx="427" cy="150" r="40" fill="lightblue" stroke="black" stroke-width="3"/>

  <line x1="350" x2="387" y1="150" y2="150" stroke="black" stroke-width="3"/>

  <line x1="387" x2="380" y1="150" y2="143" stroke="black" stroke-width="3"/>

  <line x1="387" x2="380" y1="150" y2="157" stroke="black" stroke-width="3"/>

  <line x1="467" x2="500" y1="150" y2="150" stroke="black" stroke-width="3"/>

  <line x1="467" x2="474" y1="150" y2="143" stroke="black" stroke-width="3"/>

  <line x1="467" x2="474" y1="150" y2="157" stroke="black" stroke-width="3"/>

  <text font-family="helvetica" x="427" y="157" font-size="24" text-anchor="middle" fill="black">Fit</text>

  <text font-family="helvetica" x="200" y="30" font-size="28" text-anchor="middle" fill="black">Value Map</text>

  <text font-family="helvetica" x="600" y="30" font-size="28" text-anchor="middle" fill="black">Customer Profile</text>

</svg>
