<svg version="1.1"
     baseProfile="full"
     width="670" height="220"
     xmlns="http://www.w3.org/2000/svg">

  <rect x="10" y ="10" width="300" height="200" fill="lightgreen" stroke="black" stroke-width="3" />

  <circle cx="560" cy="110" r="100" fill="lightcoral" stroke="black" stroke-width="3"/>

  <line x1="160" x2="310" y1="110" y2="110" stroke="black" stroke-width="3"/>

  <line x1="160" x2="10" y1="110" y2="10" stroke="black" stroke-width="3"/>

  <line x1="160" x2="10" y1="110" y2="210" stroke="black" stroke-width="3"/>

  <line x1="460" x2="560" y1="110" y2="110" stroke="black" stroke-width="3"/>

  <line x1="560" x2="635" y1="110" y2="45" stroke="black" stroke-width="3"/>

  <line x1="560" x2="635" y1="110" y2="175" stroke="black" stroke-width="3"/>

  <circle cx="387" cy="110" r="40" fill="lightblue" stroke="black" stroke-width="3"/>

  <line x1="310" x2="347" y1="110" y2="110" stroke="black" stroke-width="3"/>

  <line x1="347" x2="340" y1="110" y2="103" stroke="black" stroke-width="3"/>

  <line x1="347" x2="340" y1="110" y2="117" stroke="black" stroke-width="3"/>

  <line x1="427" x2="460" y1="110" y2="110" stroke="black" stroke-width="3"/>

  <line x1="427" x2="434" y1="110" y2="113" stroke="black" stroke-width="3"/>

  <line x1="427" x2="434" y1="110" y2="117" stroke="black" stroke-width="3"/>

</svg>
