<svg version="1.1"
     baseProfile="full"
     width="710" height="260"
     xmlns="http://www.w3.org/2000/svg">

  <rect x="50" y ="50" width="300" height="200" stroke="black" stroke-width="3" fill="none"/>

  <circle cx="600" cy="150" r="100" stroke="black" stroke-width="3" fill="none"/>

  <line x1="200" x2="350" y1="150" y2="150" stroke="black" stroke-width="3"/>

  <line x1="200" x2="50" y1="150" y2="50" stroke="black" stroke-width="3"/>

  <line x1="200" x2="50" y1="150" y2="250" stroke="black" stroke-width="3"/>

  <line x1="500" x2="600" y1="150" y2="150" stroke="black" stroke-width="3"/>

  <line x1="600" x2="675" y1="150" y2="85" stroke="black" stroke-width="3"/>

  <line x1="600" x2="675" y1="150" y2="215" stroke="black" stroke-width="3"/>

  <circle cx="427" cy="150" r="40" stroke="black" stroke-width="3" fill="none"/>

  <line x1="350" x2="387" y1="150" y2="150" stroke="black" stroke-width="3"/>

  <line x1="387" x2="380" y1="150" y2="143" stroke="black" stroke-width="3"/>

  <line x1="387" x2="380" y1="150" y2="157" stroke="black" stroke-width="3"/>

  <line x1="467" x2="500" y1="150" y2="150" stroke="black" stroke-width="3"/>

  <line x1="467" x2="474" y1="150" y2="143" stroke="black" stroke-width="3"/>

  <line x1="467" x2="474" y1="150" y2="157" stroke="black" stroke-width="3"/>

</svg>
